# xmcd CD database file
#
# Track frame offsets:
#	150
#	23451
#	47689
#	75323
#	81081
#	99625
#	120733
#	143800
#	152377
#	171798
#	187977
#	208289
#
# Disc length: 3054 seconds
#
# Revision: 0
# Processed by: cddbd v1.5.2PL0 Copyright (c) Steve Scherf et al.
# Submitted via: CDex 1.70beta2
#
DISCID=8c0bec0c
DTITLE=Artuto O'Farril and Friends - Wonderful Discovery
DYEAR=1900
DGENRE=Jazz
TTITLE0=Mr. O's Groove
TTITLE1=Song For An Old Soul
TTITLE2=Summertime
TTITLE3=Arturo's Reverie
TTITLE4=Flight
TTITLE5=Go Like The Wind
TTITLE6=DownThe Road
TTITLE7=Raices(Roots)
TTITLE8=A Smile For Everyone
TTITLE9=Take A Break
TTITLE10=Old Havana
TTITLE11=Wonderful Discovery
EXTD=
EXTT0=
EXTT1=
EXTT2=
EXTT3=
EXTT4=
EXTT5=
EXTT6=
EXTT7=
EXTT8=
EXTT9=
EXTT10=
EXTT11=
PLAYORDER=
